<svg xmlns="http://www.w3.org/2000/svg" width="1024" height="1024" viewBox="0 0 1024 1024">
<g fill="black">
<path d="M 229,168 L 228,169 L 226,169 L 225,170 L 224,170 L 223,171 L 222,171 L 220,173 L 219,173 L 216,176 L 216,177 L 214,179 L 214,180 L 213,181 L 213,182 L 212,183 L 212,185 L 211,186 L 211,246 L 210,247 L 210,256 L 209,257 L 209,264 L 208,265 L 208,270 L 207,271 L 207,275 L 206,276 L 206,280 L 205,281 L 205,284 L 204,285 L 204,289 L 203,290 L 203,293 L 202,294 L 202,297 L 201,298 L 201,300 L 200,301 L 200,304 L 199,305 L 199,308 L 198,309 L 198,312 L 197,313 L 197,317 L 196,318 L 196,321 L 195,322 L 195,326 L 194,327 L 194,331 L 193,332 L 193,337 L 192,338 L 192,343 L 191,344 L 191,351 L 190,352 L 190,362 L 189,363 L 189,405 L 190,406 L 190,415 L 191,416 L 191,423 L 192,424 L 192,429 L 193,430 L 193,435 L 194,436 L 194,440 L 195,441 L 195,444 L 196,445 L 196,449 L 197,450 L 197,452 L 198,453 L 198,456 L 199,457 L 199,460 L 200,461 L 200,463 L 201,464 L 201,467 L 202,468 L 202,470 L 203,471 L 203,473 L 204,474 L 204,476 L 205,477 L 205,478 L 206,479 L 206,481 L 207,482 L 207,484 L 208,485 L 208,486 L 209,487 L 209,489 L 210,490 L 210,491 L 211,492 L 211,493 L 212,494 L 212,496 L 213,497 L 213,498 L 214,499 L 214,500 L 215,501 L 215,502 L 216,503 L 216,505 L 217,506 L 217,507 L 218,508 L 218,509 L 219,510 L 219,511 L 220,512 L 220,513 L 221,514 L 221,515 L 223,517 L 223,518 L 224,519 L 224,520 L 225,521 L 225,522 L 226,523 L 226,524 L 228,526 L 228,527 L 229,528 L 229,529 L 231,531 L 231,532 L 232,533 L 232,534 L 234,536 L 234,537 L 236,539 L 236,540 L 238,542 L 238,543 L 240,545 L 240,546 L 242,548 L 242,549 L 245,552 L 245,553 L 248,556 L 248,557 L 251,560 L 251,561 L 255,565 L 255,566 L 261,572 L 261,573 L 275,587 L 275,742 L 276,743 L 276,749 L 277,750 L 277,753 L 278,754 L 278,755 L 279,756 L 279,758 L 280,759 L 280,760 L 282,762 L 282,763 L 286,767 L 286,768 L 288,770 L 289,770 L 292,773 L 293,773 L 294,774 L 295,774 L 296,775 L 297,775 L 298,776 L 299,776 L 300,777 L 302,777 L 303,778 L 306,778 L 307,779 L 317,779 L 318,778 L 322,778 L 323,777 L 325,777 L 326,776 L 327,776 L 328,775 L 329,775 L 330,774 L 331,774 L 333,772 L 334,772 L 343,763 L 343,762 L 345,760 L 345,759 L 346,758 L 346,756 L 347,755 L 347,754 L 348,753 L 348,751 L 349,750 L 349,745 L 350,744 L 350,730 L 349,729 L 349,642 L 350,641 L 351,641 L 353,643 L 354,643 L 355,644 L 356,644 L 357,645 L 358,645 L 359,646 L 360,646 L 362,648 L 363,648 L 364,649 L 365,649 L 366,650 L 367,650 L 368,651 L 370,651 L 371,652 L 372,652 L 373,653 L 374,653 L 375,654 L 376,654 L 377,655 L 378,655 L 379,656 L 381,656 L 382,657 L 383,657 L 384,658 L 386,658 L 387,659 L 388,659 L 389,660 L 391,660 L 392,661 L 393,661 L 394,662 L 396,662 L 397,663 L 399,663 L 400,664 L 402,664 L 403,665 L 404,665 L 405,666 L 405,822 L 406,823 L 406,826 L 407,827 L 407,830 L 408,831 L 408,832 L 409,833 L 409,834 L 410,835 L 410,836 L 412,838 L 412,839 L 421,848 L 422,848 L 424,850 L 425,850 L 426,851 L 427,851 L 428,852 L 430,852 L 431,853 L 433,853 L 434,854 L 439,854 L 440,855 L 445,855 L 446,854 L 451,854 L 452,853 L 454,853 L 455,852 L 456,852 L 457,851 L 459,851 L 461,849 L 462,849 L 464,847 L 465,847 L 471,841 L 471,840 L 473,838 L 473,837 L 475,835 L 475,834 L 476,833 L 476,831 L 477,830 L 477,829 L 478,828 L 478,825 L 479,824 L 479,815 L 480,814 L 480,681 L 481,680 L 486,680 L 487,681 L 534,681 L 535,680 L 543,680 L 544,681 L 543,682 L 543,818 L 544,819 L 544,825 L 545,826 L 545,828 L 546,829 L 546,831 L 547,832 L 547,833 L 548,834 L 548,835 L 549,836 L 549,837 L 551,839 L 551,840 L 558,847 L 559,847 L 561,849 L 562,849 L 564,851 L 565,851 L 566,852 L 568,852 L 569,853 L 571,853 L 572,854 L 577,854 L 578,855 L 583,855 L 584,854 L 589,854 L 590,853 L 592,853 L 593,852 L 595,852 L 596,851 L 597,851 L 598,850 L 599,850 L 601,848 L 602,848 L 610,840 L 610,839 L 612,837 L 612,836 L 614,834 L 614,832 L 615,831 L 615,830 L 616,829 L 616,827 L 617,826 L 617,822 L 618,821 L 618,666 L 619,665 L 622,665 L 623,664 L 624,664 L 625,663 L 627,663 L 628,662 L 630,662 L 631,661 L 632,661 L 633,660 L 635,660 L 636,659 L 637,659 L 638,658 L 640,658 L 641,657 L 642,657 L 643,656 L 644,656 L 645,655 L 647,655 L 648,654 L 649,654 L 650,653 L 651,653 L 652,652 L 653,652 L 654,651 L 655,651 L 656,650 L 657,650 L 658,649 L 659,649 L 660,648 L 661,648 L 662,647 L 663,647 L 664,646 L 665,646 L 667,644 L 668,644 L 669,643 L 670,643 L 671,642 L 672,642 L 673,641 L 674,642 L 674,749 L 675,750 L 675,752 L 676,753 L 676,755 L 677,756 L 677,757 L 678,758 L 678,759 L 679,760 L 679,761 L 681,763 L 681,764 L 689,772 L 690,772 L 692,774 L 693,774 L 694,775 L 695,775 L 696,776 L 697,776 L 698,777 L 700,777 L 701,778 L 705,778 L 706,779 L 716,779 L 717,778 L 720,778 L 721,777 L 723,777 L 724,776 L 726,776 L 727,775 L 728,775 L 730,773 L 731,773 L 733,771 L 734,771 L 740,765 L 740,764 L 743,761 L 743,760 L 744,759 L 744,758 L 745,757 L 745,756 L 746,755 L 746,753 L 747,752 L 747,749 L 748,748 L 748,588 L 755,581 L 755,580 L 763,572 L 763,571 L 768,566 L 768,565 L 772,561 L 772,560 L 775,557 L 775,556 L 778,553 L 778,552 L 780,550 L 780,549 L 782,547 L 782,546 L 784,544 L 784,543 L 786,541 L 786,540 L 788,538 L 788,537 L 790,535 L 790,534 L 792,532 L 792,531 L 793,530 L 793,529 L 795,527 L 795,526 L 796,525 L 796,524 L 797,523 L 797,522 L 799,520 L 799,519 L 800,518 L 800,517 L 801,516 L 801,515 L 802,514 L 802,513 L 803,512 L 803,511 L 804,510 L 804,509 L 805,508 L 805,507 L 806,506 L 806,505 L 807,504 L 807,503 L 808,502 L 808,501 L 809,500 L 809,499 L 810,498 L 810,496 L 811,495 L 811,494 L 812,493 L 812,491 L 813,490 L 813,489 L 814,488 L 814,486 L 815,485 L 815,484 L 816,483 L 816,481 L 817,480 L 817,479 L 818,478 L 818,476 L 819,475 L 819,473 L 820,472 L 820,470 L 821,469 L 821,467 L 822,466 L 822,463 L 823,462 L 823,460 L 824,459 L 824,456 L 825,455 L 825,453 L 826,452 L 826,448 L 827,447 L 827,444 L 828,443 L 828,440 L 829,439 L 829,434 L 830,433 L 830,429 L 831,428 L 831,422 L 832,421 L 832,414 L 833,413 L 833,402 L 834,401 L 834,369 L 833,368 L 833,356 L 832,355 L 832,348 L 831,347 L 831,342 L 830,341 L 830,335 L 829,334 L 829,330 L 828,329 L 828,325 L 827,324 L 827,321 L 826,320 L 826,316 L 825,315 L 825,312 L 824,311 L 824,308 L 823,307 L 823,304 L 822,303 L 822,300 L 821,299 L 821,295 L 820,294 L 820,291 L 819,290 L 819,286 L 818,285 L 818,282 L 817,281 L 817,276 L 816,275 L 816,271 L 815,270 L 815,264 L 814,263 L 814,256 L 813,255 L 813,243 L 812,242 L 812,185 L 811,184 L 811,182 L 810,181 L 810,180 L 808,178 L 808,177 L 803,172 L 802,172 L 800,170 L 798,170 L 797,169 L 795,169 L 794,168 L 775,168 L 774,169 L 250,169 L 249,168 Z" />
</g>
</svg>